<?xml version="1.0" encoding="utf-8"?>
<svg xmlns="http://www.w3.org/2000/svg">
<symbol id="angular" viewBox="0 0 250 250">
	<polygon class="st0" points="125 30 125 30 125 30 31.9 63.2 46.1 186.3 125 230 125 230 125 230 203.9 186.3 218.1 63.2" fill="#DD0031"/>
	<polygon class="st1" points="125 30 125 52.2 125 52.1 125 153.4 125 153.4 125 230 125 230 203.9 186.3 218.1 63.2" fill="#C3002F"/>
	<path class="st2" d="m125 52.1l-58.2 130.5h21.7l11.7-29.2h49.4l11.7 29.2h21.7l-58-130.5zm17 83.3h-34l17-40.9 17 40.9z" fill="#FFFFFF"/>

</symbol>
<symbol id="aws_api" viewBox="0 0 256 310"><path d="M256 137.042l-62.152 2.575-40.289-2.57 66.64-6.387L256 137.042" fill="#634B1E"/><path d="M220.055 133.45L256 137.042V64.636l-35.945-17.975-2.76 2.98v80.728l2.76 3.081" fill="#D9A740"/><path d="M153.559 64.594l66.496-17.997v86.853l-66.496 3.597V64.594" fill="#886A2A"/><path d="M0 137.042l62.152 2.575 40.289-2.57-66.45-7.117L0 137.042" fill="#634B1E"/><path d="M35.945 133.45L0 136.935V64.31l35.945-17.945 1.655 3.091v81.281l-1.655 2.713" fill="#886A2A"/><path d="M102.441 64.594L35.945 46.597v86.853l66.496 3.597V64.594" fill="#D9A740"/><g><path d="M256 174.486l-62.152-2.576-40.289 2.571 66.35 6.707L256 174.486" fill="#FAD791"/><path d="M220.055 178.078L256 174.486v72.405l-35.945 17.975-1.888-4.111v-78.983l1.888-3.694" fill="#D9A740"/><path d="M153.559 246.934l66.496 17.997v-86.853l-66.496-3.597v72.453" fill="#886A2A"/></g><g><path d="M0 174.486l62.152-2.576 40.289 2.571-66.931 7.288L0 174.486" fill="#FAD791"/><path d="M35.945 178.078L0 174.486v72.405l35.945 17.975 2.179-3.24v-79.857l-2.179-3.691" fill="#886A2A"/><path d="M102.441 246.934l-66.496 17.997v-86.853l66.496-3.597v72.453" fill="#D9A740"/></g><g><path d="M95.553 106.629l32.966-5.781 65.814 9.319 5.669 3.261-31.966 3.498-72.483-10.297" fill="#634B1E"/><path d="M160.447 106.629l-32.966-5.781L58.833 111.5l-2.835 1.928 31.966 3.498 72.483-10.297" fill="#634B1E"/><path d="M95.553 204.899l32.966 5.781 65.648-9.18 5.835-3.4-31.966-3.498-72.483 10.297" fill="#FAD791"/><path d="M160.447 204.899l-32.966 5.781-69.148-9.847-2.335-2.733 31.966-3.498 72.483 10.297" fill="#FAD791"/><path d="M200.002 113.428V77.641l-33.713-11.025v-46.84L128 .634v.001l-1.597 2.543-.291 302.588 1.888 3.891 38.289-19.142v-45.603l33.713-11.025V198.1l-33.713 5.935v-96.542l33.713 5.935" fill="#D9A740"/><path d="M89.711 19.776v46.84L55.998 77.641v35.787l33.713-5.935v96.542L55.998 198.1v35.787l33.713 11.025v45.603L128 309.657V.634L89.711 19.776" fill="#886A2A"/></g>
</symbol>
<symbol id="aws_lambda" viewBox="0 0 256 310"><path d="M0 245.262l16.322 8.161L19 248.668V59.333l-2.678-3.494L0 64v181.262" fill="#9D5025"/><path d="M47.678 63.57l-31.356-7.731v197.584l31.356-7.302V63.57" fill="#F68536"/><path d="M143.893 78.604l22.335-11.597 74.309 28.778-19.758 2.577-76.886-19.758" fill="#6B3A19"/><path d="M144.752 230.658l21.906 11.597 74.308-28.778-19.758-2.578-76.456 19.759" fill="#FBBF93"/><path d="M150.336 198.872l39.087 5.155 2.244-4.027v-90l-2.244-4.765-39.087 5.154v88.483M35.651 45.96l24.054-12.027L62.333 39v231l-2.628 5.329-24.054-12.027V45.96" fill="#9D5025"/><path d="M108.671 259.007l-48.966 15.892V33.933l48.966 15.893v209.181" fill="#F68536"/><path d="M89.772 289.933L128 309.262l4-4.595v-299L128 0 89.772 19.329v270.604M219.919 98.362l19.759-2.577 1.697 2.465V211l-1.697 2.906-19.759-2.577V98.362" fill="#9D5025"/><path d="M189.423 105.235v99.221l40.805-49.825-40.805-49.396" fill="#F68536"/><path d="M239.678 55.839L128 0v309.262l128-64V64l-16.322-8.161zm0 158.217l-73.45 21.936V73.27l73.45 21.936v118.85z" fill="#F68536"/>
</symbol>
<symbol id="aws_s3" viewBox="0 0 200 200">
	<polygon points="164.3 40.2 164.3 159 100 145.2 100 54.8" fill="#8C2F1E"/>
	<polygon points="164.3 40.2 176.5 46.7 176.5 154.1 164.3 159" fill="#DF533F"/>
	<polygon points="35.7 40.2 23.5 46.7 23.5 154.1 35.7 159" fill="#8D3322"/>
	<polygon points="35.7 40.2 35.7 159 100 145.2 100 54.8" fill="#DF513D"/>
	<polygon points="100 8.4 100 54.8 127.7 61.3 127.7 22.3" fill="#DE513D"/>
	<polygon points="72.3 61.3 100 67 127.7 61.3 100 54.8" fill="#612015"/>
	<polygon points="100 191.6 100 145.2 127.7 138.7 127.7 177.7" fill="#DE503C"/>
	<polygon points="127.7 138.7 100 133 72.3 138.7 100 145.2" fill="#EFABA3"/>
	<polygon points="127.7 80.9 127.7 119.9 100 123.2 100 76.8" fill="#DE503C"/>
	<polygon points="100 8.4 100 54.8 72.3 61.3 72.3 22.3" fill="#8C301F"/>
	<polygon points="100 191.6 100 145.2 72.3 138.7 72.3 177.7" fill="#8C301F"/>
	<polygon points="72.3 80.9 72.3 119.9 100 123.2 100 76.8" fill="#8C301F"/>

</symbol>
<symbol id="github" viewBox="0 0 24 24"><title id="simpleicons-github-icon">GitHub icon</title><path d="M12 .297c-6.63 0-12 5.373-12 12 0 5.303 3.438 9.8 8.205 11.385.6.113.82-.258.82-.577 0-.285-.01-1.04-.015-2.04-3.338.724-4.042-1.61-4.042-1.61C4.422 18.07 3.633 17.7 3.633 17.7c-1.087-.744.084-.729.084-.729 1.205.084 1.838 1.236 1.838 1.236 1.07 1.835 2.809 1.305 3.495.998.108-.776.417-1.305.76-1.605-2.665-.3-5.466-1.332-5.466-5.93 0-1.31.465-2.38 1.235-3.22-.135-.303-.54-1.523.105-3.176 0 0 1.005-.322 3.3 1.23.96-.267 1.98-.399 3-.405 1.02.006 2.04.138 3 .405 2.28-1.552 3.285-1.23 3.285-1.23.645 1.653.24 2.873.12 3.176.765.84 1.23 1.91 1.23 3.22 0 4.61-2.805 5.625-5.475 5.92.42.36.81 1.096.81 2.22 0 1.606-.015 2.896-.015 3.286 0 .315.21.69.825.57C20.565 22.092 24 17.592 24 12.297c0-6.627-5.373-12-12-12"/>
</symbol>
<symbol id="vscode_icon" viewBox="0 0 261 260">
<path d="m195.47-0.0058594v223.3l-194.98-28.959 194.98 65.654 65-27.039v-201.89l0.02148-0.009765-0.02148-0.042969v-3.9766l-65-27.041z" fill="#007acc"/>
<path d="m127.24 38.037l-59.721 59.033-35.955-27.078-14.818 4.9492 36.58 36.16-36.58 36.158 14.818 4.9512 35.955-27.08h0.001954l59.717 59.029 35.768-15.197v-115.73l-35.766-15.197zm-0.00196 42.121v61.879l-41.086-30.939 41.086-30.939z" fill="#007acc"/>

</symbol></svg>