<?xml version="1.0" encoding="utf-8"?>
<svg xmlns="http://www.w3.org/2000/svg">
<symbol id="angular" viewBox="0 0 250 250">
	<polygon class="st0" points="125 30 125 30 125 30 31.9 63.2 46.1 186.3 125 230 125 230 125 230 203.9 186.3 218.1 63.2" fill="#DD0031"/>
	<polygon class="st1" points="125 30 125 52.2 125 52.1 125 153.4 125 153.4 125 230 125 230 203.9 186.3 218.1 63.2" fill="#C3002F"/>
	<path class="st2" d="m125 52.1l-58.2 130.5h21.7l11.7-29.2h49.4l11.7 29.2h21.7l-58-130.5zm17 83.3h-34l17-40.9 17 40.9z" fill="#FFFFFF"/>

</symbol>
<symbol id="aws_api" viewBox="0 0 256 310"><path d="M256 137.042l-62.152 2.575-40.289-2.57 66.64-6.387L256 137.042" fill="#634B1E"/><path d="M220.055 133.45L256 137.042V64.636l-35.945-17.975-2.76 2.98v80.728l2.76 3.081" fill="#D9A740"/><path d="M153.559 64.594l66.496-17.997v86.853l-66.496 3.597V64.594" fill="#886A2A"/><path d="M0 137.042l62.152 2.575 40.289-2.57-66.45-7.117L0 137.042" fill="#634B1E"/><path d="M35.945 133.45L0 136.935V64.31l35.945-17.945 1.655 3.091v81.281l-1.655 2.713" fill="#886A2A"/><path d="M102.441 64.594L35.945 46.597v86.853l66.496 3.597V64.594" fill="#D9A740"/><g><path d="M256 174.486l-62.152-2.576-40.289 2.571 66.35 6.707L256 174.486" fill="#FAD791"/><path d="M220.055 178.078L256 174.486v72.405l-35.945 17.975-1.888-4.111v-78.983l1.888-3.694" fill="#D9A740"/><path d="M153.559 246.934l66.496 17.997v-86.853l-66.496-3.597v72.453" fill="#886A2A"/></g><g><path d="M0 174.486l62.152-2.576 40.289 2.571-66.931 7.288L0 174.486" fill="#FAD791"/><path d="M35.945 178.078L0 174.486v72.405l35.945 17.975 2.179-3.24v-79.857l-2.179-3.691" fill="#886A2A"/><path d="M102.441 246.934l-66.496 17.997v-86.853l66.496-3.597v72.453" fill="#D9A740"/></g><g><path d="M95.553 106.629l32.966-5.781 65.814 9.319 5.669 3.261-31.966 3.498-72.483-10.297" fill="#634B1E"/><path d="M160.447 106.629l-32.966-5.781L58.833 111.5l-2.835 1.928 31.966 3.498 72.483-10.297" fill="#634B1E"/><path d="M95.553 204.899l32.966 5.781 65.648-9.18 5.835-3.4-31.966-3.498-72.483 10.297" fill="#FAD791"/><path d="M160.447 204.899l-32.966 5.781-69.148-9.847-2.335-2.733 31.966-3.498 72.483 10.297" fill="#FAD791"/><path d="M200.002 113.428V77.641l-33.713-11.025v-46.84L128 .634v.001l-1.597 2.543-.291 302.588 1.888 3.891 38.289-19.142v-45.603l33.713-11.025V198.1l-33.713 5.935v-96.542l33.713 5.935" fill="#D9A740"/><path d="M89.711 19.776v46.84L55.998 77.641v35.787l33.713-5.935v96.542L55.998 198.1v35.787l33.713 11.025v45.603L128 309.657V.634L89.711 19.776" fill="#886A2A"/></g>
</symbol>
<symbol id="aws_lambda" viewBox="0 0 256 310"><path d="M0 245.262l16.322 8.161L19 248.668V59.333l-2.678-3.494L0 64v181.262" fill="#9D5025"/><path d="M47.678 63.57l-31.356-7.731v197.584l31.356-7.302V63.57" fill="#F68536"/><path d="M143.893 78.604l22.335-11.597 74.309 28.778-19.758 2.577-76.886-19.758" fill="#6B3A19"/><path d="M144.752 230.658l21.906 11.597 74.308-28.778-19.758-2.578-76.456 19.759" fill="#FBBF93"/><path d="M150.336 198.872l39.087 5.155 2.244-4.027v-90l-2.244-4.765-39.087 5.154v88.483M35.651 45.96l24.054-12.027L62.333 39v231l-2.628 5.329-24.054-12.027V45.96" fill="#9D5025"/><path d="M108.671 259.007l-48.966 15.892V33.933l48.966 15.893v209.181" fill="#F68536"/><path d="M89.772 289.933L128 309.262l4-4.595v-299L128 0 89.772 19.329v270.604M219.919 98.362l19.759-2.577 1.697 2.465V211l-1.697 2.906-19.759-2.577V98.362" fill="#9D5025"/><path d="M189.423 105.235v99.221l40.805-49.825-40.805-49.396" fill="#F68536"/><path d="M239.678 55.839L128 0v309.262l128-64V64l-16.322-8.161zm0 158.217l-73.45 21.936V73.27l73.45 21.936v118.85z" fill="#F68536"/>
</symbol>
<symbol id="aws_s3" viewBox="0 0 200 200">
	<polygon points="164.3 40.2 164.3 159 100 145.2 100 54.8" fill="#8C2F1E"/>
	<polygon points="164.3 40.2 176.5 46.7 176.5 154.1 164.3 159" fill="#DF533F"/>
	<polygon points="35.7 40.2 23.5 46.7 23.5 154.1 35.7 159" fill="#8D3322"/>
	<polygon points="35.7 40.2 35.7 159 100 145.2 100 54.8" fill="#DF513D"/>
	<polygon points="100 8.4 100 54.8 127.7 61.3 127.7 22.3" fill="#DE513D"/>
	<polygon points="72.3 61.3 100 67 127.7 61.3 100 54.8" fill="#612015"/>
	<polygon points="100 191.6 100 145.2 127.7 138.7 127.7 177.7" fill="#DE503C"/>
	<polygon points="127.7 138.7 100 133 72.3 138.7 100 145.2" fill="#EFABA3"/>
	<polygon points="127.7 80.9 127.7 119.9 100 123.2 100 76.8" fill="#DE503C"/>
	<polygon points="100 8.4 100 54.8 72.3 61.3 72.3 22.3" fill="#8C301F"/>
	<polygon points="100 191.6 100 145.2 72.3 138.7 72.3 177.7" fill="#8C301F"/>
	<polygon points="72.3 80.9 72.3 119.9 100 123.2 100 76.8" fill="#8C301F"/>

</symbol>
<symbol id="github" viewBox="0 0 24 24"><title id="simpleicons-github-icon">GitHub icon</title><path d="M12 .297c-6.63 0-12 5.373-12 12 0 5.303 3.438 9.8 8.205 11.385.6.113.82-.258.82-.577 0-.285-.01-1.04-.015-2.04-3.338.724-4.042-1.61-4.042-1.61C4.422 18.07 3.633 17.7 3.633 17.7c-1.087-.744.084-.729.084-.729 1.205.084 1.838 1.236 1.838 1.236 1.07 1.835 2.809 1.305 3.495.998.108-.776.417-1.305.76-1.605-2.665-.3-5.466-1.332-5.466-5.93 0-1.31.465-2.38 1.235-3.22-.135-.303-.54-1.523.105-3.176 0 0 1.005-.322 3.3 1.23.96-.267 1.98-.399 3-.405 1.02.006 2.04.138 3 .405 2.28-1.552 3.285-1.23 3.285-1.23.645 1.653.24 2.873.12 3.176.765.84 1.23 1.91 1.23 3.22 0 4.61-2.805 5.625-5.475 5.92.42.36.81 1.096.81 2.22 0 1.606-.015 2.896-.015 3.286 0 .315.21.69.825.57C20.565 22.092 24 17.592 24 12.297c0-6.627-5.373-12-12-12"/>
</symbol>
<symbol id="node_icon" viewBox="0 0 442.37 270.929">
<defs><clipPath id="a"><path d="M239.03 226.605l-42.13 24.317c-1.578.91-2.546 2.59-2.546 4.406v48.668c0 1.817.968 3.496 2.546 4.406l42.133 24.336c1.575.907 3.517.907 5.09 0l42.126-24.336c1.57-.91 2.54-2.59 2.54-4.406v-48.668c0-1.816-.97-3.496-2.55-4.406l-42.12-24.317c-.79-.453-1.67-.68-2.55-.68-.88 0-1.76.227-2.55.68"/></clipPath><linearGradient id="b" x1="-.348" x2="1.251" gradientTransform="rotate(116.114 53.1 202.97) scale(86.48)" gradientUnits="userSpaceOnUse"><stop offset=".3" stop-color="#3E863D"/><stop offset=".5" stop-color="#55934F"/><stop offset=".8" stop-color="#5AAD45"/></linearGradient><clipPath id="c"><path d="M195.398 307.086c.403.523.907.976 1.5 1.316l36.14 20.875 6.02 3.46c.9.52 1.926.74 2.934.665.336-.027.672-.09 1-.183l44.434-81.36c-.34-.37-.738-.68-1.184-.94l-27.586-15.93-14.582-8.39c-.414-.24-.863-.41-1.32-.53zm0 0"/></clipPath><linearGradient id="d" x1="-.456" x2=".582" gradientTransform="rotate(-36.46 550.846 -214.337) scale(132.798)" gradientUnits="userSpaceOnUse"><stop offset=".57" stop-color="#3E863D"/><stop offset=".72" stop-color="#619857"/><stop offset="1" stop-color="#76AC64"/></linearGradient><clipPath id="e"><path d="M241.066 225.953c-.707.07-1.398.29-2.035.652l-42.01 24.247 45.3 82.51c.63-.09 1.25-.3 1.81-.624l42.13-24.336c1.3-.754 2.19-2.03 2.46-3.476l-46.18-78.89c-.34-.067-.68-.102-1.03-.102-.14 0-.28.007-.42.02"/></clipPath><linearGradient id="f" x1=".043" x2=".984" gradientTransform="translate(192.862 279.652) scale(97.417)" gradientUnits="userSpaceOnUse"><stop offset=".16" stop-color="#6BBF47"/><stop offset=".38" stop-color="#79B461"/><stop offset=".47" stop-color="#75AC64"/><stop offset=".7" stop-color="#659E5A"/><stop offset=".9" stop-color="#3E863D"/></linearGradient></defs>
<path fill="#689f63" d="M218.647 270.93c-1.46 0-2.91-.383-4.19-1.12l-13.337-7.896c-1.992-1.114-1.02-1.508-.363-1.735 2.656-.93 3.195-1.14 6.03-2.75.298-.17.688-.11.993.07l10.246 6.08c.37.2.895.2 1.238 0l39.95-23.06c.37-.21.61-.64.61-1.08v-46.1c0-.46-.24-.87-.618-1.1l-39.934-23.04c-.37-.22-.86-.22-1.23 0l-39.926 23.04c-.387.22-.633.65-.633 1.09v46.1c0 .44.24.86.62 1.07l10.94 6.32c5.94 2.97 9.57-.53 9.57-4.05v-45.5c0-.65.51-1.15 1.16-1.15h5.06c.63 0 1.15.5 1.15 1.15v45.52c0 7.92-4.32 12.47-11.83 12.47-2.31 0-4.13 0-9.21-2.5l-10.48-6.04c-2.59-1.5-4.19-4.3-4.19-7.29v-46.1c0-3 1.6-5.8 4.19-7.28l39.99-23.07c2.53-1.43 5.89-1.43 8.4 0l39.94 23.08c2.58 1.49 4.19 4.28 4.19 7.28v46.1c0 2.99-1.61 5.78-4.19 7.28l-39.94 23.07c-1.28.74-2.73 1.12-4.21 1.12"/><path fill="#689f63" d="M230.987 239.164c-17.48 0-21.145-8.024-21.145-14.754 0-.64.516-1.15 1.157-1.15h5.16c.57 0 1.05.415 1.14.978.78 5.258 3.1 7.91 13.67 7.91 8.42 0 12-1.902 12-6.367 0-2.57-1.02-4.48-14.1-5.76-10.94-1.08-17.7-3.49-17.7-12.24 0-8.06 6.8-12.86 18.19-12.86 12.79 0 19.13 4.44 19.93 13.98.03.33-.09.65-.31.89-.22.23-.53.37-.85.37h-5.19c-.54 0-1.01-.38-1.12-.9-1.25-5.53-4.27-7.3-12.48-7.3-9.19 0-10.26 3.2-10.26 5.6 0 2.91 1.26 3.76 13.66 5.4 12.28 1.63 18.11 3.93 18.11 12.56 0 8.7-7.26 13.69-19.92 13.69m48.66-48.89h1.34c1.1 0 1.31-.77 1.31-1.22 0-1.18-.81-1.18-1.26-1.18h-1.38zm-1.63-3.78h2.97c1.02 0 3.02 0 3.02 2.28 0 1.59-1.02 1.92-1.63 2.12 1.19.08 1.27.86 1.43 1.96.08.69.21 1.88.45 2.28h-1.83c-.05-.4-.33-2.6-.33-2.72-.12-.49-.29-.73-.9-.73h-1.51v3.46h-1.67zm-3.57 4.3c0 3.58 2.89 6.48 6.44 6.48 3.58 0 6.47-2.96 6.47-6.48 0-3.59-2.93-6.44-6.48-6.44-3.5 0-6.44 2.81-6.44 6.43m14.16.03c0 4.24-3.47 7.7-7.7 7.7-4.2 0-7.7-3.42-7.7-7.7 0-4.36 3.58-7.7 7.7-7.7 4.15 0 7.69 3.35 7.69 7.7"/><path fill="#333" fill-rule="evenodd" d="M94.936 90.55c0-1.84-.97-3.53-2.558-4.445l-42.356-24.37c-.715-.42-1.516-.64-2.328-.67h-.438c-.812.03-1.613.25-2.34.67L2.562 86.105C.984 87.025 0 88.715 0 90.555l.093 65.64c0 .91.47 1.76 1.27 2.21.78.48 1.76.48 2.54 0l25.18-14.42c1.59-.946 2.56-2.618 2.56-4.44V108.88c0-1.83.97-3.52 2.555-4.43l10.72-6.174c.796-.46 1.67-.688 2.56-.688.876 0 1.77.226 2.544.687l10.715 6.172c1.586.91 2.56 2.6 2.56 4.43v30.663c0 1.82.983 3.5 2.565 4.44l25.164 14.41c.79.47 1.773.47 2.56 0 .776-.45 1.268-1.3 1.268-2.21zm199.868 34.176c0 .457-.243.88-.64 1.106l-14.548 8.386c-.395.227-.883.227-1.277 0l-14.55-8.386c-.4-.227-.64-.65-.64-1.106V107.93c0-.458.24-.88.63-1.11l14.54-8.4c.4-.23.89-.23 1.29 0l14.55 8.4c.4.23.64.652.64 1.11zM298.734.324c-.794-.442-1.76-.43-2.544.027-.78.46-1.262 1.3-1.262 2.21v65c0 .64-.34 1.23-.894 1.55-.55.32-1.235.32-1.79 0L281.634 63c-1.58-.914-3.526-.914-5.112 0l-42.37 24.453c-1.583.91-2.56 2.6-2.56 4.42v48.92c0 1.83.977 3.51 2.56 4.43l42.37 24.47c1.582.91 3.53.91 5.117 0l42.37-24.48c1.58-.92 2.56-2.6 2.56-4.43V18.863c0-1.856-1.01-3.563-2.63-4.47zm141.093 107.164c1.574-.914 2.543-2.602 2.543-4.422V91.21c0-1.824-.97-3.507-2.547-4.425l-42.1-24.44c-1.59-.92-3.54-.92-5.13 0l-42.36 24.45c-1.59.92-2.56 2.6-2.56 4.43v48.9c0 1.84.99 3.54 2.58 4.45l42.09 23.99c1.55.89 3.45.9 5.02.03l25.46-14.15c.8-.45 1.31-1.3 1.31-2.22 0-.92-.49-1.78-1.29-2.23l-42.62-24.46c-.8-.45-1.29-1.3-1.29-2.21v-15.34c0-.916.48-1.76 1.28-2.216l13.26-7.65c.79-.46 1.76-.46 2.55 0l13.27 7.65c.79.45 1.28 1.3 1.28 2.21v12.06c0 .91.49 1.76 1.28 2.22.79.45 1.77.45 2.56-.01zm0 0"/><path fill="#689f63" fill-rule="evenodd" d="M394.538 105.2c.3-.177.676-.177.98 0l8.13 4.69c.304.176.49.5.49.85v9.39c0 .35-.186.674-.49.85l-8.13 4.69c-.304.177-.68.177-.98 0l-8.125-4.69c-.31-.176-.5-.5-.5-.85v-9.39c0-.35.18-.674.49-.85zm0 0"/><g clip-path="url(#a)" transform="translate(-78.306 -164.016)"><path fill="url(#b)" d="M331.363 246.793l-118.715-58.19-60.87 124.174L270.49 370.97zm0 0"/></g><g clip-path="url(#c)" transform="translate(-78.306 -164.016)"><path fill="url(#d)" d="M144.07 264.004l83.825 113.453 110.86-81.906-83.83-113.45zm0 0"/></g><g clip-path="url(#e)" transform="translate(-78.306 -164.016)"><path fill="url(#f)" d="M197.02 225.934v107.43h91.683v-107.43zm0 0"/></g>
</symbol>
<symbol id="vscode_icon" viewBox="0 0 261 260">
<path d="m195.47-0.0058594v223.3l-194.98-28.959 194.98 65.654 65-27.039v-201.89l0.02148-0.009765-0.02148-0.042969v-3.9766l-65-27.041z" fill="#007acc"/>
<path d="m127.24 38.037l-59.721 59.033-35.955-27.078-14.818 4.9492 36.58 36.16-36.58 36.158 14.818 4.9512 35.955-27.08h0.001954l59.717 59.029 35.768-15.197v-115.73l-35.766-15.197zm-0.00196 42.121v61.879l-41.086-30.939 41.086-30.939z" fill="#007acc"/>

</symbol></svg>