<?xml version="1.0" encoding="UTF-8"?>
<svg width="512" height="512" version="1.1" viewBox="0 0 135.46666 135.46666" xmlns="http://www.w3.org/2000/svg" xmlns:cc="http://creativecommons.org/ns#" xmlns:dc="http://purl.org/dc/elements/1.1/" xmlns:rdf="http://www.w3.org/1999/02/22-rdf-syntax-ns#">
<g transform="translate(0 -161.53)" stroke="#000">
<path d="m50.355 193.5c-26.829 0-48.428 16.036-48.428 35.955v7.1551c0 19.919 21.599 35.955 48.428 35.955h28.714c26.829 0 48.428-16.036 48.428-35.955v-7.1551c-1e-5 -19.919-21.599-35.955-48.428-35.955zm-23.324 15.856h61.415c7.6174 0 13.75 6.1327 13.75 13.75v0.3762c0 7.6174-6.1322 13.75-13.75 13.75h-61.415c-7.6174 0-13.75-6.1327-13.75-13.75v-0.3762c0-7.6174 6.1322-13.75 13.75-13.75z" stroke-linecap="round" stroke-width="1.0611" style="paint-order:normal"/>
<ellipse cx="111.3" cy="199.86" rx="7.465" ry="6.9926" stroke-linecap="round" stroke-width=".63368" style="paint-order:normal"/>
<path transform="rotate(90)" d="m196.91-113.31a11.855 10.356 0 0 1 -7.1627 9.5104 11.855 10.356 0 0 1 -12.833 -1.9815 11.855 10.356 0 0 1 -2.9966 -11.079l11.137 3.5501z" fill="#00000c" stroke-linecap="round" stroke-width=".83621" style="paint-order:normal"/>
<ellipse cx="36.853" cy="224" rx="3.5655" ry="1.9591" fill="#00000c" stroke-linecap="round" stroke-width=".30631" style="paint-order:normal"/>
<ellipse cx="63.462" cy="224" rx="3.5655" ry="1.9591" fill="#00000c" stroke-linecap="round" stroke-width=".30631" style="paint-order:normal"/>
<ellipse cx="57.169" cy="235.77" rx="37.325" ry="4.7247" fill="#00000c" stroke-linecap="round" stroke-width=".63368" style="paint-order:normal"/>
<path d="m21.698 214.51-2.5483 1.4638 26.752 7.2694 0.04353-1.4347z" fill="#00000c" stroke-linejoin="round" stroke-width="1.8521"/>
<path d="m80.081 214.51 2.5483 1.4638-26.752 7.2694-0.04353-1.4347z" fill="#00000c" stroke-linejoin="round" stroke-width="1.8521"/>
<path transform="rotate(124.64)" d="m97.744-210.22a11.855 10.356 0 0 1 -7.1627 9.5104 11.855 10.356 0 0 1 -12.833 -1.9815 11.855 10.356 0 0 1 -2.9966 -11.079l11.137 3.5501z" fill="#00000c" stroke-linecap="round" stroke-width=".83621" style="paint-order:normal"/>
</g>
</svg>
