<?xml version="1.0" encoding="UTF-8"?>
<svg enable-background="new 0 0 200 200" version="1.1" viewBox="0 0 200 200" xml:space="preserve" xmlns="http://www.w3.org/2000/svg">
	<polygon points="164.3 40.2 164.3 159 100 145.2 100 54.8" fill="#8C2F1E"/>
	<polygon points="164.3 40.2 176.5 46.7 176.5 154.1 164.3 159" fill="#DF533F"/>
	<polygon points="35.7 40.2 23.5 46.7 23.5 154.1 35.7 159" fill="#8D3322"/>
	<polygon points="35.7 40.2 35.7 159 100 145.2 100 54.8" fill="#DF513D"/>
	<polygon points="100 8.4 100 54.8 127.7 61.3 127.7 22.3" fill="#DE513D"/>
	<polygon points="72.3 61.3 100 67 127.7 61.3 100 54.8" fill="#612015"/>
	<polygon points="100 191.6 100 145.2 127.7 138.7 127.7 177.7" fill="#DE503C"/>
	<polygon points="127.7 138.7 100 133 72.3 138.7 100 145.2" fill="#EFABA3"/>
	<polygon points="127.7 80.9 127.7 119.9 100 123.2 100 76.8" fill="#DE503C"/>
	<polygon points="100 8.4 100 54.8 72.3 61.3 72.3 22.3" fill="#8C301F"/>
	<polygon points="100 191.6 100 145.2 72.3 138.7 72.3 177.7" fill="#8C301F"/>
	<polygon points="72.3 80.9 72.3 119.9 100 123.2 100 76.8" fill="#8C301F"/>
</svg>
